<?xml version="1.0" standalone="no"?><!DOCTYPE svg PUBLIC "-//W3C//DTD SVG 1.1//EN" "http://www.w3.org/Graphics/SVG/1.1/DTD/svg11.dtd"><svg t="1552803081127" class="icon" style="" viewBox="0 0 1024 1024" version="1.1" xmlns="http://www.w3.org/2000/svg" p-id="10356" xmlns:xlink="http://www.w3.org/1999/xlink" width="200" height="200"><defs><style type="text/css"></style></defs><path d="M246.921623 258.051217l65.901573 0c9.911127 0 18.041627-8.102538 18.041627-18.012236L330.864823 95.068216c0-9.910721-8.130501-18.013259-18.041627-18.013259l-65.901573 0c-10.026765 0-18.012974 8.102538-18.012974 18.013259l0 144.971789C228.908649 249.948679 236.894858 258.051217 246.921623 258.051217z" p-id="10357" fill="#ffffff"></path><path d="M711.235135 258.051217l65.93125 0c9.93978 0 18.012974-8.102538 18.012974-18.012236L795.179359 95.068216c0-9.910721-8.073193-18.013259-18.012974-18.013259l-65.93125 0c-9.938757 0-18.128612 8.102538-18.128612 18.013259l0 144.971789C693.106523 249.948679 701.296378 258.051217 711.235135 258.051217z" p-id="10358" fill="#ffffff"></path><path d="M854.727986 146.364509l-23.144041 0 0 93.675496c0 29.961382-24.42425 54.502311-54.41756 54.502311l-65.93125 0c-29.96261 0-54.504545-24.539906-54.504545-54.502311l0-93.675496L367.240756 146.364509l0 93.675496c0 29.961382-24.42425 54.502311-54.41756 54.502311l-65.901573 0c-30.021964 0-54.475891-24.539906-54.475891-54.502311l0-93.675496-23.376341 0c-57.769025 0-104.783685 46.983057-104.783685 104.809067l0 194.57758 0 396.210857c0 57.999972 47.01466 104.984053 104.783685 104.984053l685.658595 0c57.914341 0 104.987331-46.984081 104.987331-104.984053L959.715317 445.751157 959.715317 251.172553C959.715317 193.347566 912.642327 146.364509 854.727986 146.364509zM893.317421 841.96099c0 21.335934-17.28435 38.587853-38.589435 38.587853L169.069391 880.548844c-21.131115 0-38.357135-17.251919-38.357135-38.587853L130.712256 445.751157l762.606188 0L893.318444 841.96099z" p-id="10359" fill="#ffffff"></path></svg>