<?xml version="1.0" standalone="no"?><!DOCTYPE svg PUBLIC "-//W3C//DTD SVG 1.1//EN" "http://www.w3.org/Graphics/SVG/1.1/DTD/svg11.dtd"><svg t="1552617813225" class="icon" style="" viewBox="0 0 1024 1024" version="1.1" xmlns="http://www.w3.org/2000/svg" p-id="2010" xmlns:xlink="http://www.w3.org/1999/xlink" width="200" height="200"><defs><style type="text/css"></style></defs><path d="M74.147744 902.951063l875.704512 0 0 39.804565-875.704512 0 0-39.804565Z" p-id="2011"></path><path d="M233.367025 743.890394l557.26595 0 0 39.804565-557.26595 0 0-39.804565Z" p-id="2012"></path><path d="M746.420007 256.785388c-74.148767 21.925359-152.85534 33.740452-234.415914 33.740452-85.567841 0-167.997202-12.997012-245.315148-37.039591 10.775414 3.464915 28.643364 9.083889 30.329772 8.794293-2.281973 13.907755-4.811586 27.731598-7.569396 41.472554 70.907956 18.701944 145.525398 28.693506 222.553749 28.693506 77.026304 0 151.639652-9.990538 222.545562-28.691459-2.75781-13.741979-5.287423-27.565822-7.569396-41.472554C728.034265 262.330684 737.266533 259.59334 746.420007 256.785388z" p-id="2013"></path><path d="M870.242104 47.307446 153.756873 47.307446c-43.967374 0-79.609129 35.641755-79.609129 79.609129l0 588.540234 0 68.439742c104.83158-139.493008 179.698708-302.71137 215.302601-480.142431 2.75781-13.741979 5.287423-27.565822 7.569396-41.472554-1.686409 0.288572-19.555381-5.329379-30.329772-8.794293-4.747117-1.526773-8.123005-2.63706-8.123005-2.63706-0.00307 0.021489-0.007163 0.042979-0.010233 0.063445 0 0.001023 0 0.00307-0.001023 0.004093-23.11444 144.55121-73.051783 280.128025-144.603399 401.496234L113.952308 146.818857c0-32.975019 26.731828-59.706847 59.706847-59.706847l99.275028 0c0 0.00307 0 0.005117 0 0.008186l39.774889 0c0-0.00307 0-0.005117 0-0.008186L711.290929 87.11201c0 0.00307 0 0.005117 0 0.008186l39.774889 0c0-0.00307 0-0.005117 0-0.008186l99.275028 0c32.975019 0 59.706847 26.731828 59.706847 59.706847l0 505.594103c0 0 0 0 0 0l0 0 0 0c-71.542406-121.352859-121.476679-256.911254-144.594189-401.443022-0.00307-0.01842-0.00614-0.035816-0.00921-0.054235-0.00307-0.022513-0.007163-0.044002-0.011256-0.066515 0 0-9.463536 3.006474-19.014052 5.936199-9.153474 2.807952-18.385742 5.545296-19.438725 5.497201 2.281973 13.907755 4.811586 27.731598 7.569396 41.472554 35.604916 177.431062 110.471021 340.6484 215.301578 480.140385l0-1.810229 0-66.629513L949.851233 126.916575C949.852256 82.9492 914.210501 47.307446 870.242104 47.307446z" p-id="2014"></path></svg>