<?xml version="1.0" standalone="no"?><!DOCTYPE svg PUBLIC "-//W3C//DTD SVG 1.1//EN" "http://www.w3.org/Graphics/SVG/1.1/DTD/svg11.dtd"><svg t="1552617920634" class="icon" style="" viewBox="0 0 1024 1024" version="1.1" xmlns="http://www.w3.org/2000/svg" p-id="3232" xmlns:xlink="http://www.w3.org/1999/xlink" width="200" height="200"><defs><style type="text/css"></style></defs><path d="M74.147744 902.951063l875.704512 0 0 39.804565-875.704512 0 0-39.804565Z" p-id="3233" fill="#dd2727"></path><path d="M233.367025 743.890394l557.26595 0 0 39.804565-557.26595 0 0-39.804565Z" p-id="3234" fill="#dd2727"></path><path d="M870.242104 47.307446 153.756873 47.307446c-43.967374 0-79.609129 35.641755-79.609129 79.609129l0 588.540234 0 68.439742c104.83158-139.493008 179.698708-302.71137 215.302601-480.142431 70.907956 18.701944 145.525398 28.693506 222.553749 28.693506 77.026304 0 151.639652-9.990538 222.545562-28.691459 35.604916 177.431062 110.471021 340.6484 215.301578 480.140385l0-1.810229 0-66.629513L949.851233 126.916575C949.852256 82.9492 914.210501 47.307446 870.242104 47.307446z" p-id="3235" fill="#dd2727"></path></svg>