<?xml version="1.0" standalone="no"?><!DOCTYPE svg PUBLIC "-//W3C//DTD SVG 1.1//EN" "http://www.w3.org/Graphics/SVG/1.1/DTD/svg11.dtd"><svg t="1552617858830" class="icon" style="" viewBox="0 0 1024 1024" version="1.1" xmlns="http://www.w3.org/2000/svg" p-id="2467" xmlns:xlink="http://www.w3.org/1999/xlink" width="200" height="200"><defs><style type="text/css"></style></defs><path d="M951.466667 430.933333L565.333333 125.866667c-29.866667-23.466667-76.8-23.466667-106.666666 0L72.533333 430.933333c-6.4 6.4-10.666667 14.933333-6.4 23.466667s10.666667 14.933333 19.2 14.933333h44.8v375.466667c0 42.666667 32 72.533333 74.666667 72.533333h224c12.8 0 21.333333-8.533333 21.333333-21.333333v-153.6c0-32 27.733333-59.733333 61.866667-59.733333h4.266667c34.133333 0 61.866667 27.733333 61.866666 59.733333V896c0 12.8 8.533333 21.333333 21.333334 21.333333h226.133333c42.666667 0 70.4-29.866667 70.4-72.533333V469.333333h42.666667c8.533333 0 17.066667-6.4 19.2-14.933333s2.133333-17.066667-6.4-23.466667z" fill="#dd2727" p-id="2468" class="selected"></path></svg>