<?xml version="1.0" standalone="no"?><!DOCTYPE svg PUBLIC "-//W3C//DTD SVG 1.1//EN" "http://www.w3.org/Graphics/SVG/1.1/DTD/svg11.dtd"><svg t="1552617785362" class="icon" style="" viewBox="0 0 1024 1024" version="1.1" xmlns="http://www.w3.org/2000/svg" p-id="1617" xmlns:xlink="http://www.w3.org/1999/xlink" width="200" height="200"><defs><style type="text/css"></style></defs><path d="M951.467 425.956l-386.133-307.2c-29.867-23.467-76.8-23.467-106.667 0l-386.133 307.2c-8.533 6.4-10.667 21.333-4.267 29.867 6.4 8.533 21.333 10.667 29.867 4.267l386.133-309.333c14.933-10.667 40.533-10.667 53.333 0l386.133 307.2c6.4 4.267 10.667 4.267 14.933 4.267 6.4 0 12.8-2.133 17.067-8.533 6.4-8.533 6.4-21.333-4.267-27.733zM874.667 504.889c-12.8 0-21.333 8.533-21.333 21.333v311.467c0 19.2-8.533 29.867-27.733 29.867h-204.8v-132.267c0-57.6-46.933-102.4-104.533-102.4h-4.267c-57.6 0-104.533 46.933-104.533 102.4v132.267h-204.8c-19.2 0-32-10.667-32-29.867v-311.467c0-12.8-8.533-21.333-21.333-21.333s-21.333 8.533-21.333 21.333v311.467c0 42.667 32 72.533 74.667 72.533h226.133c12.8 0 21.333-8.533 21.333-21.333v-153.6c0-32 27.733-59.733 61.867-59.733h4.267c34.133 0 61.867 27.733 61.867 59.733v153.6c0 12.8 8.533 21.333 21.333 21.333h226.133c42.667 0 70.4-29.867 70.4-72.533v-311.467c0-10.667-8.533-21.333-21.333-21.333z" p-id="1618"></path></svg>