<?xml version="1.0" standalone="no"?><!DOCTYPE svg PUBLIC "-//W3C//DTD SVG 1.1//EN" "http://www.w3.org/Graphics/SVG/1.1/DTD/svg11.dtd"><svg t="1552617910587" class="icon" style="" viewBox="0 0 1024 1024" version="1.1" xmlns="http://www.w3.org/2000/svg" p-id="3053" xmlns:xlink="http://www.w3.org/1999/xlink" width="200" height="200"><defs><style type="text/css"></style></defs><path d="M930.981467 918.507364 700.434673 918.507364c154.089447-70.819952 261.087367-226.520083 261.087367-407.214469 0-247.387343-200.549595-447.935915-447.935915-447.935915S65.650209 263.905552 65.650209 511.292895s200.549595 447.935915 447.935915 447.935915c2.961448 0 5.913687-0.037862 8.860808-0.095167 0.432859 0.056282 0.870834 0.095167 1.319042 0.095167l407.214469 0c5.624091 0 10.17985-4.556783 10.17985-10.180873l0-20.360723C941.161317 923.064147 936.604534 918.507364 930.981467 918.507364zM839.357699 511.292895c0 67.467601-54.692646 122.164341-122.164341 122.164341s-122.164341-54.69674-122.164341-122.164341c0-67.471694 54.692646-122.164341 122.164341-122.164341S839.357699 443.821201 839.357699 511.292895zM513.586125 185.521321c67.471694 0 122.164341 54.69674 122.164341 122.164341 0 67.471694-54.692646 122.164341-122.164341 122.164341S391.421784 375.157355 391.421784 307.685661C391.421784 240.21806 446.11443 185.521321 513.586125 185.521321zM187.81455 511.292895c0-67.471694 54.692646-122.164341 122.164341-122.164341s122.164341 54.692646 122.164341 122.164341c0 67.467601-54.692646 122.164341-122.164341 122.164341S187.81455 578.760496 187.81455 511.292895zM391.421784 714.90013c0-67.467601 54.692646-122.164341 122.164341-122.164341s122.164341 54.69674 122.164341 122.164341c0 67.471694-54.692646 122.164341-122.164341 122.164341S391.421784 782.371824 391.421784 714.90013z" p-id="3054" fill="#dd2727" class="selected"></path></svg>