<?xml version="1.0" standalone="no"?><!DOCTYPE svg PUBLIC "-//W3C//DTD SVG 1.1//EN" "http://www.w3.org/Graphics/SVG/1.1/DTD/svg11.dtd"><svg t="1552617802643" class="icon" style="" viewBox="0 0 1024 1024" version="1.1" xmlns="http://www.w3.org/2000/svg" p-id="1879" xmlns:xlink="http://www.w3.org/1999/xlink" width="200" height="200"><defs><style type="text/css"></style></defs><path d="M838.090846 510.603187c0-67.515696-54.729485-122.245182-122.245182-122.245182s-122.245182 54.729485-122.245182 122.245182c0 67.511603 54.729485 122.245182 122.245182 122.245182S838.090846 578.11479 838.090846 510.603187zM715.845665 592.099293c-45.011146 0-81.497129-36.485983-81.497129-81.497129 0-45.011146 36.485983-81.497129 81.497129-81.497129 45.011146 0 81.497129 36.485983 81.497129 81.497129C797.342794 555.61331 760.856811 592.099293 715.845665 592.099293zM512.104377 429.106058c67.515696 0 122.245182-54.729485 122.245182-122.245182 0-67.511603-54.729485-122.245182-122.245182-122.245182s-122.245182 54.733579-122.245182 122.245182C389.858172 374.376573 444.587658 429.106058 512.104377 429.106058zM512.104377 225.363747c45.011146 0 81.497129 36.485983 81.497129 81.497129 0 45.011146-36.485983 81.497129-81.497129 81.497129-45.011146 0-81.497129-36.485983-81.497129-81.497129C430.607248 261.84973 467.093231 225.363747 512.104377 225.363747zM430.607248 510.603187c0-67.515696-54.729485-122.245182-122.245182-122.245182s-122.245182 54.729485-122.245182 122.245182c0 67.511603 54.729485 122.245182 122.245182 122.245182S430.607248 578.11479 430.607248 510.603187zM308.362067 592.099293c-45.011146 0-81.497129-36.485983-81.497129-81.497129 0-45.011146 36.485983-81.497129 81.497129-81.497129 45.011146 0 81.497129 36.485983 81.497129 81.497129C389.858172 555.61331 353.37219 592.099293 308.362067 592.099293zM512.104377 592.099293c-67.515696 0-122.245182 54.733579-122.245182 122.245182 0 67.515696 54.729485 122.245182 122.245182 122.245182s122.245182-54.729485 122.245182-122.245182C634.349559 646.832871 579.620074 592.099293 512.104377 592.099293zM512.104377 795.841603c-45.011146 0-81.497129-36.485983-81.497129-81.497129s36.485983-81.497129 81.497129-81.497129c45.011146 0 81.497129 36.485983 81.497129 81.497129S557.1145 795.841603 512.104377 795.841603zM929.774989 918.086785 699.076746 918.086785c154.191778-70.867024 261.260306-226.669486 261.260306-407.484621 0-247.551072-200.681602-448.232674-448.232674-448.232674S63.871703 263.052115 63.871703 510.603187s200.681602 448.232674 448.232674 448.232674c2.963495 0 5.91778-0.037862 8.866948-0.095167 0.432859 0.056282 0.871857 0.095167 1.320065 0.095167l407.484621 0c5.627161 0 10.187013-4.559852 10.187013-10.187013l0-20.374026C939.962002 922.646638 935.402149 918.086785 929.774989 918.086785zM512.104377 918.086785c-225.045499 0-407.484621-182.435029-407.484621-407.484621 0-225.045499 182.439122-407.484621 407.484621-407.484621S919.587975 285.557688 919.587975 510.603187C919.587975 735.652779 737.148853 918.086785 512.104377 918.086785z" p-id="1880"></path></svg>