<?xml version="1.0" standalone="no"?><!DOCTYPE svg PUBLIC "-//W3C//DTD SVG 1.1//EN" "http://www.w3.org/Graphics/SVG/1.1/DTD/svg11.dtd"><svg t="1552617836154" class="icon" style="" viewBox="0 0 1024 1024" version="1.1" xmlns="http://www.w3.org/2000/svg" p-id="2144" xmlns:xlink="http://www.w3.org/1999/xlink" width="200" height="200"><defs><style type="text/css"></style></defs><path d="M616.533333 618.666667c106.666667-42.666667 181.333333-147.2 181.333334-266.666667C797.866667 192 669.866667 64 509.866667 64c-157.866667 0-288 128-288 288 0 121.6 74.666667 224 181.333333 266.666667-134.4 38.4-241.066667 151.466667-268.8 294.4-2.133333 6.4 0 12.8 4.266667 17.066666 2.133333 4.266667 8.533333 8.533333 14.933333 8.533334h712.533333c6.4 0 12.8-2.133333 17.066667-8.533334 4.266667-4.266667 6.4-10.666667 4.266667-17.066666-29.866667-142.933333-136.533333-256-270.933334-294.4z" fill="#dd2727" p-id="2145"></path></svg>