<?xml version="1.0" standalone="no"?><!DOCTYPE svg PUBLIC "-//W3C//DTD SVG 1.1//EN" "http://www.w3.org/Graphics/SVG/1.1/DTD/svg11.dtd"><svg t="1552618086790" class="icon" style="" viewBox="0 0 1024 1024" version="1.1" xmlns="http://www.w3.org/2000/svg" p-id="3413" xmlns:xlink="http://www.w3.org/1999/xlink" width="200" height="200"><defs><style type="text/css"></style></defs><path d="M800 352C800 194.133333 672 64 512 64S224 194.133333 224 352c0 117.333333 70.4 219.733333 172.8 264.533333-130.133333 42.666667-236.8 153.6-270.933333 296.533334-2.133333 10.666667 4.266667 23.466667 14.933333 25.6h4.266667c10.666667 0 19.2-6.4 21.333333-17.066667C204.8 759.466667 349.866667 640 509.866667 640h2.133333c160 0 288-130.133333 288-288z m-533.333333 0C266.666667 217.6 377.6 106.666667 512 106.666667s245.333333 110.933333 245.333333 245.333333S646.4 597.333333 512 597.333333s-245.333333-110.933333-245.333333-245.333333zM893.866667 913.066667c-23.466667-96-78.933333-179.2-157.866667-234.666667l-21.333333-14.933333c-10.666667-6.4-23.466667-4.266667-29.866667 6.4-6.4 10.666667-4.266667 23.466667 6.4 29.866666l21.333333 14.933334c70.4 49.066667 121.6 123.733333 140.8 211.2 2.133333 10.666667 10.666667 17.066667 21.333334 17.066666h4.266666c10.666667-6.4 17.066667-17.066667 14.933334-29.866666z" fill="#333333" p-id="3414"></path></svg>